PathFileType	4	(X/Y/Z)	13_coords_data.trc
DataRate	CameraRate	NumFrames	NumMarkers	Units	OrigDataRate	OrigDataStartFrame	OrigNumFrames
30.0	30.0	5	21	m	30.0	51	61
Frame#	Time	THUMB_TIP	THUMB_IP	THUMB_MCP	THUMB_CMC	INDEX_TIP	INDEX_DIP	INDEX_PIP	INDEX_MCP	MIDDLE_TIP	MIDDLE_DIP	MIDDLE_PIP	MIDDLE_MCP	RING_TIP	RING_DIP	RING_PIP	RING_MCP	PINKY_TIP	PINKY_DIP	PINKY_PIP	PINKY_MCP	WRIST
X1	Y1	Z1	X2	Y2	Z2	X3	Y3	Z3	X4	Y4	Z4	X5	Y5	Z5	X6	Y6	Z6	X7	Y7	Z7	X8	Y8	Z8	X9	Y9	Z9	X10	Y10	Z10	X11	Y11	Z11	X12	Y12	Z12	X13	Y13	Z13	X14	Y14	Z14	X15	Y15	Z15	X16	Y16	Z16	X17	Y17	Z17	X18	Y18	Z18	X19	Y19	Z19	X20	Y20	Z20	X21	Y21	Z21
50	1.6666666666666667	-0.013638299942016601	-0.05374660110473633	0.9588040161132813	-0.009933210372924805	-0.031180599212646484	0.9741400146484375	-0.01175380039215088	-0.012575599670410156	0.9953099975585937	-0.013036999702453613	0.020521799087524415	1.01052001953125	0.001462990045547485	0.012573699951171875	0.97981298828125	0.017710100173950194	0.017383399963378905	0.9706510009765625	0.02064030075073242	0.018960599899291993	0.9473800048828125	-0.016093500137329103	0.009647390365600587	0.9511810302734375	0.003269190073013305	0.02900709915161133	0.9864990234375	0.014801600456237792	0.03521030044555664	0.9790440063476562	0.021953100204467772	0.040654399871826175	0.9536680297851563	-0.017829299926757813	0.03400379943847656	0.9459959716796875	-0.005700160026550293	0.042436199188232424	0.9934979858398437	0.008356510162353515	0.05053689956665039	0.9873800048828125	0.016597000122070313	0.05949829864501953	0.96610302734375	-0.019798000335693358	0.05510219955444336	0.95302197265625	-0.01010319995880127	0.05592449951171875	0.9990499877929687	0.003183249950408935	0.06341339874267578	0.9947429809570313	0.00764339017868042	0.0720884017944336	0.9793499755859375	-0.01994820022583008	0.07197820281982421	0.9660159912109375	-0.03674670028686523	0.04339350128173828	1.0214400024414063
51	1.7	-0.013318599700927735	-0.05377230072021484	0.959052001953125	-0.009669210433959961	-0.031159099578857423	0.9743809814453125	-0.01157610034942627	-0.012529899597167968	0.995468017578125	-0.013053500175476074	0.02067609977722168	1.0109099731445312	0.0016540499925613399	0.01276420021057129	0.9800159912109375	0.017986499786376953	0.017569900512695313	0.9705709838867187	0.020783399581909178	0.01904829978942871	0.9474760131835938	-0.015870200157165528	0.009853819847106933	0.9512780151367187	0.003467089891433716	0.029106000900268554	0.9865120239257813	0.015017800331115723	0.03537020111083984	0.97925	0.022068199157714845	0.04083240127563476	0.953719970703125	-0.017691600799560548	0.03418379974365234	0.9460780029296875	-0.005388879776000976	0.04263710021972656	0.9940269775390626	0.008489580154418945	0.05067599868774414	0.9874970092773437	0.01665139961242676	0.05969169998168945	0.9662030029296875	-0.01976370048522949	0.05523469924926758	0.953208984375	-0.010026100158691407	0.05600540161132812	0.9995419921875	0.003143219947814941	0.06353910064697266	0.994926025390625	0.007668330192565918	0.07226319885253907	0.979447998046875	-0.019949399948120117	0.07213809967041016	0.966198974609375	-0.03673939895629883	0.043452701568603515	1.0219000244140626
52	1.7333333333333334	-0.01269540023803711	-0.05443960189819336	0.9600380249023438	-0.008940090179443359	-0.031603799819946286	0.9748469848632813	-0.011150099754333497	-0.012643799781799317	0.995593994140625	-0.012824799537658691	0.02072629928588867	1.0109099731445312	0.0028085799217224122	0.013052900314331055	0.97943798828125	0.018911399841308595	0.017652599334716797	0.9694550170898437	0.0209685001373291	0.018573400497436523	0.945864990234375	-0.015563300132751465	0.009971420288085937	0.9515059814453125	0.003661590099334717	0.029133800506591798	0.9861099853515625	0.01555780029296875	0.03547119903564453	0.9779249877929688	0.022186100006103517	0.040729301452636715	0.9522509765625	-0.017653900146484373	0.03425960159301758	0.94610400390625	-0.005252600193023682	0.04248970031738281	0.9934169921875	0.00882742977142334	0.05068159866333008	0.9866929931640624	0.01674690055847168	0.05963000106811524	0.965051025390625	-0.0199148006439209	0.0552489013671875	0.95327197265625	-0.009789310455322265	0.05582889938354492	0.9991849975585938	0.003496190071105957	0.06344419860839844	0.9943079833984375	0.0077744097709655765	0.0722040023803711	0.9787570190429687	-0.020005300521850587	0.07208599853515625	0.966072021484375	-0.03659199905395508	0.04334130096435547	1.0220599975585938
53	1.7666666666666666	-0.014969599723815919	-0.05586640167236328	0.9621380004882812	-0.010027000427246094	-0.032715198516845706	0.9757490234375	-0.012088299751281738	-0.01319279956817627	0.9960040283203125	-0.013083800315856934	0.020262800216674804	1.0106900024414063	0.005501140117645264	0.013201800346374512	0.9783350219726562	0.020402099609375	0.016510599136352538	0.965718994140625	0.019855899810791014	0.015964300155639648	0.9416900024414062	-0.01633889961242676	0.009524930000305175	0.951969970703125	0.004545869827270507	0.028310699462890623	0.9833569946289062	0.0172455997467041	0.03466830062866211	0.9740499877929687	0.02201799964904785	0.03907619857788086	0.947197021484375	-0.0181781005859375	0.03368939971923828	0.9459730224609375	-0.003918669939041137	0.04200139999389649	0.9905780029296875	0.010516599655151367	0.05013050079345703	0.9826510009765625	0.017048200607299804	0.05873040008544922	0.9607310180664063	-0.0205718994140625	0.054526901245117186	0.952635009765625	-0.007868070125579834	0.05564360046386719	0.9966229858398438	0.005245460033416748	0.06319419860839844	0.9911220092773437	0.008483340263366699	0.07171309661865234	0.9753350219726562	-0.020339300155639648	0.07130780029296875	0.9648670043945312	-0.0365901985168457	0.04360580062866211	1.0225399780273436
54	1.8	-0.01895289993286133	-0.05654190063476563	0.9625460205078125	-0.012150600433349609	-0.03360290145874024	0.9755260009765625	-0.013832599639892577	-0.014144499778747559	0.9959400024414062	-0.013930800437927247	0.019077800750732423	1.0108200073242188	0.01950629997253418	0.014936200141906738	0.9732689819335938	0.027259599685668944	0.015235400199890137	0.9565440063476562	0.018548500061035155	0.012648900032043458	0.9350349731445312	-0.0156810998916626	0.009428890228271484	0.9527490234375	0.010852399826049805	0.027665199279785155	0.9783289794921874	0.024038900375366212	0.034294898986816404	0.9654099731445313	0.022405899047851563	0.03781710052490234	0.9393209838867187	-0.01713369941711426	0.03392770004272461	0.9457919921875	0.0018964600563049312	0.04155580139160156	0.9861129760742188	0.015768500328063966	0.04994340133666992	0.9750969848632812	0.018030599594116212	0.05868759918212891	0.951177978515625	-0.020066799163818358	0.05447069931030273	0.9524810180664063	-0.001711099982261657	0.05498699951171875	0.993510986328125	0.009675769805908204	0.06340439987182617	0.9852760009765625	0.010010700225830078	0.07213310241699218	0.969291015625	-0.019938699722290038	0.07077310180664062	0.9647119750976563	-0.037241401672363283	0.04301259994506836	1.0229400024414061
